<?xml version="1.0" ?><!DOCTYPE svg  PUBLIC '-//W3C//DTD SVG 1.1//EN'  'http://www.w3.org/Graphics/SVG/1.1/DTD/svg11.dtd'><svg height="100%" style="fill-rule:evenodd;clip-rule:evenodd;stroke-linejoin:round;stroke-miterlimit:2;" version="1.1" viewBox="0 0 32 32" width="100%" xml:space="preserve" xmlns="http://www.w3.org/2000/svg" xmlns:serif="http://www.serif.com/" xmlns:xlink="http://www.w3.org/1999/xlink"><path d="M6.5,23.265l-1.999,-0c-0,-0 -0.001,-15.62 -0.001,-15.766c0,-0.552 0.447,-0.999 0.999,-0.999c0,0 0.002,-0 0.002,-0c0.552,0 0.999,0.447 0.999,0.999l-0,15.766Zm21,-15.766l-0,15.766l-2,-0l-0,-15.766c0,-0.552 0.447,-0.999 0.999,-0.999c0,0 0.002,-0 0.002,-0c0.552,0 0.999,0.447 0.999,0.999Zm-22.107,-1.495c-0.135,0.009 -0.264,0.036 -0.387,0.079c0.039,0.237 0.245,0.417 0.493,0.417c-0,0 -0.07,-0.248 -0.106,-0.496Zm20.881,0.013c-0.093,0.014 -0.182,0.036 -0.268,0.066c0.039,0.237 0.245,0.417 0.493,0.417c-0,0 -0.147,-0.239 -0.225,-0.483Z" style="fill:#8ac4d0;"/><path d="M23.495,25.499l0,-1.034c0,-0.265 0.106,-0.519 0.293,-0.707c0.188,-0.187 0.442,-0.293 0.707,-0.293l4.005,0c0.265,0 0.52,0.106 0.707,0.293c0.188,0.188 0.293,0.442 0.293,0.707l-0,1.034l-6.005,-0Zm-14.995,-0.017l-0.047,0.017l-5.908,-0c-0.013,-0.004 -0.032,-0.012 -0.045,-0.017l-0,-0.982c-0,-0.265 0.105,-0.52 0.293,-0.707c0.187,-0.188 0.442,-0.293 0.707,-0.293l4,-0c0.265,-0 0.52,0.105 0.707,0.293c0.188,0.187 0.293,0.442 0.293,0.707l-0,0.982Z" style="fill:#28527a;"/><path d="M5.499,6c-0.828,0 -1.466,0.635 -1.499,1.491l-0,15.274l-0.5,-0c-0.828,-0 -1.5,0.671 -1.5,1.5l-0,1.234c-0,0.276 0.224,0.5 0.5,0.5l6,-0c0.276,-0 0.5,-0.224 0.5,-0.5l-0,-1.234c-0,-0.829 -0.672,-1.5 -1.5,-1.5l-0.5,-0l-0,-3.087c1.418,0.423 4.915,0.735 9,0.735c4.085,-0 7.582,-0.312 9,-0.735l-0,3.087l-0.5,-0c-0.828,-0 -1.5,0.671 -1.5,1.5l-0,1.234c-0,0.276 0.224,0.5 0.5,0.5l6,-0c0.276,-0 0.5,-0.224 0.5,-0.5l-0,-1.234c-0,-0.829 -0.672,-1.5 -1.5,-1.5l-0.5,-0c-0,-0 -0.001,-15.263 -0.001,-15.263c-0,-0.828 -0.67,-1.502 -1.498,-1.502l-0.002,0c-0.806,0 -1.463,0.635 -1.498,1.432c-0.134,0.054 -0.407,0.158 -0.673,0.218c-1.561,0.354 -4.706,0.592 -8.328,0.592c-3.622,-0 -6.767,-0.238 -8.328,-0.592c-0.266,-0.06 -0.539,-0.164 -0.673,-0.218c-0.035,-0.797 -0.692,-1.432 -1.498,-1.432l-0.002,0Zm23.001,17.765l-4,-0c-0.276,-0 -0.5,0.224 -0.5,0.5c-0,-0 -0,0.734 -0,0.734c-0,-0 5,-0 5,-0l-0,-0.734c-0,-0.276 -0.224,-0.5 -0.5,-0.5Zm-21,-0l-4,-0c-0.276,-0 -0.5,0.224 -0.5,0.5c-0,-0 -0,0.734 -0,0.734c-0,-0 5,-0 5,-0l-0,-0.734c-0,-0.276 -0.224,-0.5 -0.5,-0.5Zm19.5,-1l-0,-15.265c-0,-0.276 -0.224,-0.5 -0.5,-0.5c0,0 0,0 0,0c-0.276,0 -0.5,0.223 -0.5,0.499c-0,-0 -0,15.266 0,15.266l1,-0Zm-21,-15.273l-0,-0c-0.004,-0.272 -0.226,-0.492 -0.499,-0.492c-0,-0 -0.002,0 -0.002,0c-0.276,0 -0.499,0.224 -0.499,0.5c-0,-0 -0,15.265 0,15.265l1,-0c-0,-0 -0,-15.269 -0,-15.273Zm10.501,10.691c-0.166,0.001 -0.834,0.001 -0.998,0l-0,1.228c0.164,0.001 0.832,0.001 0.998,0l-0,-1.228Zm-2.998,-0.038l-0,1.229c0.326,0.01 0.66,0.019 1,0.025l-0,-1.229c-0.34,-0.006 -0.673,-0.015 -1,-0.025Zm4.998,-0c-0.327,0.01 -0.661,0.019 -1,0.025l-0,1.229c0.339,-0.007 0.673,-0.015 1,-0.025l-0,-1.229Zm-7,-0.096l-0,1.23c0.323,0.021 0.657,0.039 1.002,0.055l-0,-1.229c-0.344,-0.016 -0.679,-0.035 -1.002,-0.056Zm9.002,0c-0.324,0.021 -0.658,0.039 -1.002,0.056l-0,1.229c0.344,-0.016 0.679,-0.034 1.002,-0.055l-0,-1.23Zm-11.001,-0.169l0,1.228c0.313,0.035 0.647,0.068 0.999,0.097l-0,-1.229c-0.351,-0.029 -0.684,-0.061 -0.999,-0.096Zm12.999,0c-0.315,0.034 -0.648,0.066 -0.998,0.096l-0,1.229c0.351,-0.03 0.685,-0.062 0.998,-0.097l-0,-1.228Zm-15.501,-0.43l-0,1.154c0.135,0.054 1.19,0.323 1.502,0.372l0,-1.222c-0.624,-0.091 -1.133,-0.194 -1.502,-0.304Zm18,0c-0.368,0.11 -0.877,0.212 -1.499,0.304l-0,1.221c0.31,-0.048 1.364,-0.317 1.499,-0.371l-0,-1.154Zm-8.499,-1.51c-0.166,0.001 -0.834,0.001 -0.998,-0l-0,1.243c0.164,0.001 0.832,0.001 0.998,0l-0,-1.243Zm-2.998,-0.039l-0,1.245c0.326,0.01 0.66,0.018 1,0.025l-0,-1.244c-0.34,-0.006 -0.673,-0.015 -1,-0.026Zm4.998,0c-0.327,0.011 -0.661,0.02 -1,0.026l-0,1.244c0.339,-0.007 0.673,-0.015 1,-0.026l-0,-1.244Zm-7,-0.095l-0,1.245c0.323,0.021 0.657,0.039 1.002,0.055l-0,-1.244c-0.344,-0.017 -0.679,-0.035 -1.002,-0.056Zm9.002,-0c-0.324,0.021 -0.658,0.039 -1.002,0.055l-0,1.245c0.344,-0.016 0.679,-0.034 1.002,-0.055l-0,-1.245Zm-11.001,-0.169l-0,1.243c0.313,0.035 0.647,0.068 0.999,0.097l-0,-1.244c-0.351,-0.03 -0.684,-0.062 -0.999,-0.096Zm12.999,-0c-0.315,0.034 -0.648,0.066 -0.998,0.095l-0,1.245c0.351,-0.03 0.685,-0.062 0.998,-0.097l-0,-1.243Zm-15.501,-0.43l-0,1.169c0.135,0.054 1.19,0.323 1.502,0.372l-0,-1.237c-0.624,-0.092 -1.133,-0.194 -1.502,-0.304Zm18,-0c-0.368,0.11 -0.877,0.212 -1.499,0.303l-0,1.237c0.31,-0.048 1.364,-0.317 1.499,-0.371l-0,-1.169Zm-8.499,-1.495c-0.166,0.001 -0.834,0.001 -0.998,-0l-0,1.228c0.164,0.001 0.832,0.001 0.998,-0l-0,-1.228Zm-2.998,-0.039l-0,1.229c0.326,0.011 0.66,0.019 1,0.025l-0,-1.228c-0.34,-0.006 -0.673,-0.015 -1,-0.026Zm4.998,0c-0.327,0.011 -0.661,0.019 -1,0.026l-0,1.228c0.339,-0.006 0.673,-0.014 1,-0.025l-0,-1.229Zm-7,-0.095l-0,1.23c0.323,0.02 0.657,0.039 1.002,0.055l-0,-1.229c-0.344,-0.017 -0.679,-0.035 -1.002,-0.056Zm9.002,-0c-0.324,0.021 -0.658,0.039 -1.002,0.055l-0,1.23c0.344,-0.016 0.679,-0.035 1.002,-0.055l-0,-1.23Zm-11.002,-0.169l0,1.227c0.313,0.036 0.647,0.068 1,0.098l-0,-1.229c-0.351,-0.03 -0.685,-0.062 -1,-0.096Zm13,-0c-0.315,0.034 -0.648,0.066 -0.998,0.095l-0,1.23c0.351,-0.03 0.685,-0.063 0.998,-0.098l-0,-1.227Zm-15.501,-0.43l-0,1.153c0.135,0.055 1.19,0.324 1.501,0.372l0,-1.222c-0.623,-0.091 -1.132,-0.193 -1.501,-0.303Zm18,-0c-0.368,0.11 -0.877,0.212 -1.499,0.303l-0,1.222c0.31,-0.049 1.364,-0.317 1.499,-0.372l-0,-1.153Zm-8.499,-1.511c-0.166,0.001 -0.834,0.001 -0.998,0l-0,1.244c0.164,0.001 0.832,0.001 0.998,-0l-0,-1.244Zm-2.998,-0.038l-0,1.244c0.326,0.011 0.66,0.019 1,0.025l-0,-1.243c-0.34,-0.007 -0.673,-0.015 -1,-0.026Zm4.998,-0c-0.327,0.011 -0.661,0.019 -1,0.026l-0,1.243c0.339,-0.006 0.673,-0.014 1,-0.025l-0,-1.244Zm-7,-0.095l-0,1.245c0.323,0.02 0.657,0.039 1.002,0.055l-0,-1.245c-0.344,-0.016 -0.679,-0.035 -1.002,-0.055Zm9.002,-0c-0.324,0.02 -0.658,0.039 -1.002,0.055l-0,1.245c0.344,-0.016 0.679,-0.035 1.002,-0.055l-0,-1.245Zm-11.002,-0.17l-0,1.243c0.313,0.036 0.647,0.068 1,0.098l-0,-1.245c-0.351,-0.029 -0.685,-0.061 -1,-0.096Zm13,0c-0.315,0.035 -0.648,0.067 -0.998,0.096l-0,1.245c0.351,-0.03 0.685,-0.063 0.998,-0.098l-0,-1.243Zm-15.501,-0.429l-0,1.168c0.135,0.055 1.19,0.324 1.501,0.372l-0,-1.237c-0.623,-0.091 -1.132,-0.194 -1.501,-0.303Zm18,-0c-0.368,0.109 -0.877,0.212 -1.499,0.303l-0,1.237c0.31,-0.049 1.364,-0.317 1.499,-0.372l-0,-1.168Zm-8.499,-1.496c-0.166,0.001 -0.834,0.001 -0.998,0l-0,1.228c0.164,0.001 0.832,0.001 0.998,0l-0,-1.228Zm-2.998,-0.038l-0,1.229c0.326,0.01 0.66,0.019 1,0.025l-0,-1.228c-0.34,-0.007 -0.673,-0.015 -1,-0.026Zm4.998,-0c-0.327,0.01 -0.661,0.019 -1,0.026l-0,1.228c0.339,-0.006 0.673,-0.015 1,-0.025l-0,-1.229Zm-7,-0.095l-0,1.229c0.323,0.021 0.657,0.04 1.002,0.056l-0,-1.23c-0.344,-0.016 -0.679,-0.035 -1.002,-0.055Zm9.002,-0.001c-0.324,0.021 -0.658,0.04 -1.002,0.056l-0,1.229c0.344,-0.016 0.679,-0.034 1.002,-0.055l-0,-1.23Zm-11.003,-0.169l0,1.228c0.314,0.035 0.648,0.068 1.001,0.098l-0,-1.23c-0.351,-0.029 -0.686,-0.061 -1.001,-0.096Zm13.001,0c-0.315,0.035 -0.648,0.067 -0.998,0.096l-0,1.229c0.351,-0.029 0.685,-0.062 0.998,-0.097l-0,-1.228Zm-15.501,-0.429l-0,1.153c0.135,0.054 1.189,0.323 1.5,0.372l0,-1.222c-0.623,-0.091 -1.132,-0.194 -1.5,-0.303Zm18,-0c-0.368,0.109 -0.877,0.212 -1.499,0.303l-0,1.222c0.31,-0.049 1.364,-0.318 1.499,-0.372l-0,-1.153Z" id="Net-ball"/></svg>